<svg xmlns="http://www.w3.org/2000/svg" viewBox="0 0 4000 1592.07"><defs><style>.cls-1{fill:none;}.cls-2{fill:#4d4d4d;}</style></defs><title>Vertiv-logo-gray</title><g id="Layer_2" data-name="Layer 2"><g id="Layer_1-2" data-name="Layer 1"><rect class="cls-1" width="4000" height="1592.07"/><path class="cls-2" d="M818.9,792.37,986.63,624.64h218c-71-141-217-237.86-385.7-237.86S504.21,483.59,433.19,624.64h218Z"/><path class="cls-2" d="M387.2,818.69c0,168.69,96.81,314.68,237.86,385.71L818.9,1010.56,433.19,624.85A429.69,429.69,0,0,0,387.2,818.69Z"/><path class="cls-2" d="M1204.6,624.85,818.9,1010.56l193.84,193.84c141-71,237.85-217,237.85-385.71A429.69,429.69,0,0,0,1204.6,624.85Z"/><polygon class="cls-2" points="1680.86 884.54 1588.26 624.63 1488.06 624.63 1634.22 1011.63 1724.86 1011.63 1871.02 624.63 1773.48 624.63 1680.86 884.54"/><polygon class="cls-2" points="1935.35 1011.91 2222.55 1011.91 2222.55 930.07 2025.12 930.07 2025.12 854.55 2187.74 854.55 2187.74 776.4 2025.12 776.4 2025.12 707.22 2222.55 707.22 2222.55 624.85 1935.35 624.85 1935.35 1011.91"/><path class="cls-2" d="M2626,755.32a130.69,130.69,0,0,0-130.69-130.68H2316v388h90v-124h40.76l84.94,124h105.56l-96.54-134.8C2590.13,859.74,2626,811,2626,755.32Zm-147.35,55.32H2405v-103h74.47a51.49,51.49,0,0,1,51.43,54.21C2529.5,789.35,2506.18,810.64,2478.65,810.64Z"/><polygon class="cls-2" points="2677.01 706.63 2795.01 706.63 2795.01 1011.63 2885.01 1011.63 2885.01 706.63 3004.01 706.63 3004.01 624.63 2677.01 624.63 2677.01 706.63"/><polygon class="cls-2" points="3422.69 884.54 3330.09 624.63 3229.9 624.63 3376.06 1011.63 3466.7 1011.63 3612.85 624.63 3515.32 624.63 3422.69 884.54"/><rect class="cls-2" x="3077.01" y="624.64" width="90" height="387"/><polygon class="cls-2" points="3563.66 961.43 3583.26 961.43 3583.26 1011.52 3593.22 1011.52 3593.22 961.43 3612.79 961.43 3612.79 952.59 3563.66 952.59 3563.66 961.43"/><polygon class="cls-2" points="3665.45 952.59 3647.71 997.89 3629.75 952.59 3618.34 952.59 3618.34 1011.52 3627.84 1011.52 3627.84 970.54 3644.05 1011.52 3651.15 1011.52 3666.99 970.54 3666.99 1011.52 3676.59 1011.52 3676.59 952.59 3665.45 952.59"/></g></g></svg>